<?xml version="1.0" encoding="UTF-8" standalone="no"?>
<!-- Created with Inkscape (http://www.inkscape.org/) -->

<svg
   width="126.67301"
   height="122.23634"
   viewBox="0 0 33.515567 32.341697"
   version="1.1"
   id="svg1"
   xmlns="http://www.w3.org/2000/svg"
   xmlns:svg="http://www.w3.org/2000/svg">
  <defs
     id="defs1" />
  <g
     id="layer1"
     style="display:inline"
     transform="translate(-9.7005493,-10.318583)">
    <g
       id="g14"
       transform="matrix(1.271852,0,0,1.271852,-2.669562,-7.9961501)"
       style="fill:#1a1a1a">
      <path
         style="fill:#1a1a1a;stroke-width:0.264583"
         id="path8"
         d="m 13.121856,35.333873 c 0.01749,-0.102076 0.03961,-0.203467 0.05247,-0.306231 0.02779,-0.222134 0.04335,-0.445656 0.0694,-0.667999 0.176339,-1.504997 0.370093,-3.008019 0.545797,-4.513193 0.219462,-1.778932 0.445369,-3.554846 0.585957,-5.342126 0.130859,-1.358891 0.07353,-2.723477 0.07128,-4.085824 -0.0028,-1.15428 0.05396,-2.307642 0.05294,-3.461833 0.0037,-0.368043 0.01567,-0.735905 0.0243,-1.103846 0,0 -3.449274,-1.75717 -3.449274,-1.75717 v 0 c 0.0092,0.376625 0.02168,0.753167 0.02639,1.129891 0.0019,1.172736 0.06358,2.344537 0.05881,3.517419 -0.0076,1.352604 -0.05921,2.704546 -0.08022,4.056942 -0.07676,1.809702 -0.260833,3.610809 -0.403107,5.416105 -0.192197,1.763051 -0.407097,3.549726 -1.0116635,5.227616 z" />
      <path
         style="fill:#1a1a1a;stroke-width:0.264583"
         id="path9"
         d="m 11.163,13.321096 c 0.04912,0.05062 0.110293,0.09184 0.147355,0.151849 0.108824,0.176203 0.304195,0.699702 0.365658,0.858732 0.228458,0.591106 0.459276,1.18124 0.685073,1.773375 0.355229,0.969769 0.54819,1.986418 0.842053,2.974583 0.259023,0.794196 0.490121,1.594524 0.699244,2.403126 0.149112,0.684654 0.282828,1.360172 0.4742,2.035138 0.03021,0.119432 0.06185,0.238511 0.09062,0.358296 0.09293,0.386842 0.05965,0.309825 0.174461,0.694177 0.102121,0.341882 0.23836,0.670266 0.367902,1.002279 0.173782,0.498822 0.407797,0.97241 0.608757,1.459944 0,0 3.513131,1.638472 3.513131,1.638472 v 0 c -0.03248,-0.101904 -0.05884,-0.20597 -0.09745,-0.305713 -0.153924,-0.397623 -0.401603,-0.757163 -0.52312,-1.169537 -0.256813,-0.660398 -0.547598,-1.311725 -0.650426,-2.019711 -0.0601,-0.222551 -0.129128,-0.442631 -0.189076,-0.665224 -0.121627,-0.451609 -0.177102,-0.917587 -0.295258,-1.37003 -0.22279,-0.821414 -0.44264,-1.633563 -0.732548,-2.435339 -0.316824,-1.001105 -0.517393,-2.035059 -0.882145,-3.021748 -0.358593,-0.93241 -0.75457,-1.861096 -0.940488,-2.847499 z" />
      <path
         style="fill:#1a1a1a;stroke-width:0.264583"
         id="path10"
         d="m 19.022986,28.763425 c -0.01764,-0.745778 0.226181,-1.457854 0.485836,-2.145956 0.04931,-0.132178 0.104863,-0.262191 0.147943,-0.396528 0.04602,-0.143492 0.07938,-0.290737 0.119071,-0.436106 0.04762,-0.161079 0.09075,-0.323553 0.14286,-0.483236 0.179861,-0.551182 0.413851,-1.083056 0.633295,-1.619078 0.307663,-0.676106 0.613776,-1.365063 1.029389,-1.984395 0.18702,-0.278691 0.308614,-0.402693 0.52677,-0.652931 0.244917,-0.28552 0.527206,-0.545508 0.740815,-0.857381 0.201702,-0.294488 0.332103,-0.631286 0.475658,-0.955697 0.231821,-0.516301 0.325923,-1.069114 0.372412,-1.628439 0,0 -3.464319,-1.794711 -3.464319,-1.794711 v 0 c -0.0267,0.521033 -0.08464,1.040639 -0.282411,1.528916 -0.122301,0.298565 -0.237741,0.603908 -0.417422,0.8744 -0.206146,0.310333 -0.479385,0.567586 -0.70897,0.859209 -0.217043,0.267383 -0.359841,0.426069 -0.542196,0.72346 -0.398218,0.649427 -0.655273,1.377797 -1.007481,2.050897 -0.296587,0.698205 -0.62611,1.388854 -0.859892,2.111972 -0.04335,0.134088 -0.07004,0.273094 -0.110985,0.407934 -0.04061,0.133726 -0.08906,0.264944 -0.133587,0.397417 -0.157938,0.428586 -0.346143,0.855862 -0.465699,1.297386 -0.08102,0.299222 -0.107688,0.614442 -0.193878,0.913011 z" />
      <path
         style="fill:#1a1a1a;stroke-width:0.264583"
         id="path11"
         d="m 20.583717,15.070991 c 0.169482,0.784185 0.472024,1.531141 0.764796,2.275488 0.445083,1.007095 0.620239,2.096804 0.830006,3.169348 0.02622,0.150077 0.05517,0.299702 0.07867,0.450231 0.07387,0.473261 0.02749,0.346718 0.140203,0.832435 0.09593,0.413382 0.239507,0.812962 0.371559,1.215581 0.230346,0.684332 0.318581,1.398497 0.361653,2.115565 0.02134,0.424436 0.01597,0.854053 0.105608,1.271836 0.05349,0.249297 0.113428,0.414553 0.191574,0.657838 0.162942,0.450077 0.274436,0.914926 0.395969,1.376976 0,0 3.523123,1.667521 3.523123,1.667521 v 0 c -0.15708,-0.463048 -0.23345,-0.947158 -0.421904,-1.400604 -0.202311,-0.598149 -0.368004,-1.200306 -0.342638,-1.839777 -0.04131,-0.747301 -0.105709,-1.501222 -0.345369,-2.215467 -0.123248,-0.395313 -0.285423,-0.782082 -0.393258,-1.181732 -0.07965,-0.2952 -0.106748,-0.526251 -0.157698,-0.82708 -0.02624,-0.154932 -0.05397,-0.309608 -0.08096,-0.464411 -0.234647,-1.080583 -0.437969,-2.172937 -0.791172,-3.222696 -0.270694,-0.692671 -0.581551,-1.388325 -0.692916,-2.127765 z" />
      <path
         style="fill:#1a1a1a;stroke-width:0.264583"
         id="path12"
         d="m 27.378276,31.038741 c 0.213622,-0.468902 0.560583,-0.854458 0.873043,-1.257154 0.24107,-0.310687 0.471882,-0.629198 0.708406,-0.943361 0.453803,-0.570302 0.784704,-1.221947 1.171003,-1.836606 0.248151,-0.394843 0.318961,-0.484729 0.585627,-0.862821 0.631584,-0.971689 1.357185,-1.867684 2.162614,-2.699146 0.37702,-0.405128 0.829135,-0.742978 1.147971,-1.200761 0.152263,-0.218616 0.165844,-0.279805 0.270066,-0.51735 0.11348,-0.327213 0.148069,-0.66917 0.170809,-1.012048 0,0 -3.472396,-1.790755 -3.472396,-1.790755 v 0 c -0.0092,0.302504 -0.01799,0.60756 -0.101233,0.900951 -0.25123,0.691479 -0.758142,1.123902 -1.244028,1.657733 -0.778896,0.874731 -1.547545,1.763643 -2.202328,2.737194 -0.605901,0.880921 -1.127699,1.813893 -1.724263,2.700273 -0.192795,0.251169 -0.509355,0.670282 -0.716112,0.913474 -0.350814,0.412639 -0.745376,0.791123 -1.045256,1.245611 z" />
      <path
         style="fill:#1a1a1a;stroke-width:0.264583"
         id="path13"
         d="m 31.237822,18.75774 c 0.0163,0.182896 0.03391,0.36568 0.04891,0.548687 0.03403,0.415208 0.04794,0.832051 0.08887,1.246637 0.06889,0.69788 0.193379,1.388738 0.322258,2.077346 0.235121,1.07576 0.606157,2.114796 0.83149,3.192622 0.123748,0.647985 0.15086,1.308253 0.170801,1.965951 0.06107,0.799209 -0.106246,1.580912 -0.268179,2.35747 -0.165025,0.733795 -0.365961,1.458566 -0.595323,2.174629 -0.228515,0.734163 -0.395877,1.4884 -0.589888,2.233369 -0.151022,0.681759 -0.20497,1.380479 -0.242303,2.076336 0.03932,0.788008 0.05065,1.575276 0.04492,2.3642 0,0 3.33733,1.700623 3.33733,1.700623 v 0 c -0.0049,-0.764779 -7.94e-4,-1.528567 0.06776,-2.291033 0.0131,-0.675449 0.04022,-1.354132 0.188309,-2.015982 0.169788,-0.743966 0.333698,-1.491281 0.572574,-2.216668 0.217527,-0.733521 0.44627,-1.463771 0.614524,-2.210734 0.146428,-0.802892 0.32888,-1.603883 0.307356,-2.426113 0.0044,-0.685528 -0.0011,-1.372148 -0.155533,-2.044626 -0.07597,-0.340561 -0.115041,-0.541623 -0.215908,-0.881486 -0.232979,-0.784992 -0.55949,-1.543333 -0.709321,-2.352217 -0.275058,-1.225035 -0.43356,-2.482881 -0.367305,-3.740465 z" />
      <path
         style="fill:#1a1a1a;stroke-width:0.264583"
         id="path14"
         d="m 13.693438,34.829744 c 1.033104,0.105101 2.071493,0.229751 3.087137,0.45234 0.635138,0.139197 1.494683,0.395613 2.112948,0.572034 1.280469,0.385765 2.588678,0.689224 3.856165,1.118082 0.451887,0.152897 0.96057,0.360553 1.403459,0.535657 1.090614,0.509447 2.24213,0.888447 3.316098,1.431911 0.791837,0.351391 1.558877,0.760397 2.383864,1.03 0.108638,0.03669 0.218834,0.06906 0.325916,0.110072 0.678683,0.259963 -0.05217,0.01312 0.618665,0.253605 0.282403,0.101238 0.565407,0.167209 0.859425,0.222785 0.336807,0.06593 0.682397,0.0434 1.019953,0.100372 0.159631,0.02694 0.317145,0.06527 0.476276,0.09502 0.308243,0.05282 0.619945,0.08105 0.931339,0.107302 0,0 -3.148253,-2.33127 -3.148253,-2.33127 v 0 c -0.301332,-0.02955 -0.60174,-0.06667 -0.899073,-0.125087 -0.491014,-0.08348 -0.990338,-0.0945 -1.477391,-0.202311 -0.600882,-0.156575 -1.167387,-0.406919 -1.754743,-0.605706 -0.790268,-0.296587 -1.545304,-0.67665 -2.312797,-1.026408 -1.068585,-0.47684 -2.169177,-0.880602 -3.245074,-1.340803 -0.242794,-0.09294 -0.4833,-0.192087 -0.728382,-0.27881 -1.447731,-0.512281 -2.967786,-0.795271 -4.431587,-1.254942 -0.678442,-0.19389 -1.512576,-0.443886 -2.204553,-0.596654 -0.305081,-0.06735 -0.614723,-0.112086 -0.922359,-0.166595 -0.800954,-0.14192 -1.602673,-0.283416 -2.410084,-0.384151 z" />
    </g>
  </g>
</svg>
