<?xml version="1.0" encoding="UTF-8" standalone="no"?>
<!-- Created with Inkscape (http://www.inkscape.org/) -->

<svg
   width="126.83181"
   height="138.40521"
   viewBox="0 0 33.557583 36.619712"
   version="1.1"
   id="svg1"
   xmlns="http://www.w3.org/2000/svg"
   xmlns:svg="http://www.w3.org/2000/svg">
  <defs
     id="defs1" />
  <g
     id="layer1"
     transform="translate(-9.6795426,-8.1484777)">
    <g
       id="g4"
       transform="translate(-0.35936667,-5.8547307)">
      <path
         style="fill:#1a1a1a;stroke-width:0.264583"
         id="path2"
         d="m 22.171256,14.003209 c -2.560331,4.943867 -5.450759,9.706688 -8.347113,14.458311 -0.84022,1.393491 -1.638173,2.811878 -2.375491,4.262453 -0.148952,0.293042 -0.30348,0.583663 -0.437353,0.883896 -0.254134,0.569937 -0.37875,0.984928 -0.57366,1.567339 -0.168444,0.520838 -0.279756,1.056791 -0.39873,1.590207 0,0 3.4137,1.819632 3.4137,1.819632 v 0 c 0.08134,-0.535644 0.153567,-1.073698 0.291358,-1.598824 0.06881,-0.244827 0.129362,-0.492125 0.206421,-0.734481 0.680337,-2.139706 1.719471,-4.150008 2.697972,-6.161685 0.387515,-0.728269 0.766075,-1.461373 1.162547,-2.184805 2.278713,-4.157917 4.719242,-8.24572 7.575343,-12.036399 z" />
      <path
         style="fill:#1a1a1a;stroke-width:0.264583"
         id="path3"
         d="m 22.079668,15.077881 c 0.144423,0.273526 0.26721,0.55962 0.433268,0.820578 0.822925,1.293215 2.082826,2.953074 2.990927,4.103221 1.805666,2.286954 3.063697,3.75155 5.056983,5.944219 0.962292,1.05855 1.954699,2.089327 2.932051,3.133989 2.37227,2.49046 4.801235,4.925727 7.223639,7.367103 0,0 2.879955,1.190366 2.879955,1.190366 v 0 C 41.034316,35.167951 38.46717,32.70232 36.005973,30.131014 35.041959,29.095493 34.056304,28.079702 33.113929,27.024451 31.415527,25.122614 29.905063,23.294054 28.393625,21.251685 27.459125,19.988917 26.650063,18.824564 25.924507,17.451121 25.806492,17.227725 25.7338,16.983185 25.638447,16.749216 Z" />
      <path
         style="fill:#1a1a1a;stroke-width:0.264583"
         id="path4"
         d="m 22.901996,25.951696 c 0.06126,0.548785 0.123095,1.097504 0.183775,1.646354 0.105381,0.953187 0.223453,1.905079 0.314409,2.859751 0.547333,5.744774 0.01811,1.292331 0.657396,7.275867 0.313499,2.934274 0.473252,3.992142 0.854276,6.835582 0.485067,3.252912 0.242103,1.726896 0.718619,4.57967 0,0 3.043022,1.473999 3.043022,1.473999 v 0 c -0.707368,-2.941727 -0.353568,-1.370076 -1.042294,-4.719214 -0.182015,-1.078389 -0.389056,-2.152851 -0.546044,-3.235166 -0.362352,-2.498109 -0.603711,-4.849 -0.744949,-7.370228 -0.06374,-1.13787 -0.08822,-2.27778 -0.107655,-3.417266 -0.01526,-0.894916 -0.02425,-1.790523 0.0036,-2.685134 0.0154,-0.495274 0.084,-0.987462 0.126001,-1.481193 z" />
    </g>
  </g>
</svg>
